<?xml version="1.0" standalone="no"?><!DOCTYPE svg PUBLIC "-//W3C//DTD SVG 1.1//EN" "http://www.w3.org/Graphics/SVG/1.1/DTD/svg11.dtd"><svg t="1635491429575" class="icon" viewBox="0 0 1024 1024" version="1.1" xmlns="http://www.w3.org/2000/svg" p-id="8288" width="128" height="128" xmlns:xlink="http://www.w3.org/1999/xlink"><defs><style type="text/css"></style></defs><path d="M774.469857 800.907155q8.947836-24.8551 30.820324-33.305834t42.25367-3.479714 32.31163 22.866692 1.988408 44.73918q-11.930448 32.808732-37.28265 71.582688t-71.582688 69.097178-115.824766 44.73918-168.020477-1.491306q-68.600076-11.930448-129.246521-28.831916t-108.368236-34.300038-79.53632-31.317426-41.756568-18.889876l-3.976816 3.976816-14.91306-384.75695q6.959428-70.588484 15.907264-138.194357 3.976816-28.831916 8.450734-59.155138t9.444938-60.149342 9.94204-57.16673 10.936244-49.213098q12.924652-53.687016 38.773956-74.5653t50.704404-18.392774 42.750772 22.866692 15.907264 49.213098q-1.988408 19.88408-6.959428 58.658036t-11.433346 84.50734-13.421754 92.958074-12.924652 83.016034q10.936244-29.82612 25.849304-68.600076t33.305834-81.524728 39.271058-85.998646 42.25367-81.524728 43.744976-67.605872 43.247874-44.242078q41.756568-27.837712 71.582688-26.346406t46.230486 17.895672 17.895672 40.762364-13.421754 42.25367q-16.901468 17.895672-37.28265 58.658036t-40.265262 82.518932q-22.866692 48.715996-45.733384 105.385624 35.791344-36.785548 73.571096-69.59428 31.814528-28.831916 70.588484-57.663832t74.5653-45.733384q34.79714-16.901468 65.120362-15.907264t47.22469 14.415958 15.410162 35.294242-30.323222 45.733384q-13.918856 11.930448-33.305834 28.831916t-41.259466 36.288446-45.236282 40.762364-45.236282 41.259466q-51.698608 47.721792-108.368236 98.426196 88.484156-22.866692 163.049457-21.872488 31.814528 0 63.629056 5.468122t58.658036 18.889876 46.727588 35.791344 27.837712 57.16673q9.94204 44.73918 1.491306 74.5653t-25.849304 41.756568-38.276854 2.982612-35.791344-42.750772q-13.918856-33.802936-27.34061-46.727588t-28.334814-13.918856-31.317426 5.468122-37.28265 11.433346q-13.918856 2.982612-31.317426 12.924652t-33.305834 24.357998-28.334814 31.317426-15.907264 34.300038 2.982612 32.808732 29.329018 26.346406q33.802936 16.901468 62.13775 28.334814t50.704404 14.415958 38.276854-3.976816 23.860896-27.837712z" p-id="8289" fill="#0070f3"></path></svg>